<?xml version="1.0" encoding="utf-8"?>
<!-- Generator: Adobe Illustrator 23.0.0, SVG Export Plug-In . SVG Version: 6.00 Build 0)  -->
<svg version="1.1" id="Capa_1" xmlns="http://www.w3.org/2000/svg" xmlns:xlink="http://www.w3.org/1999/xlink" x="0px" y="0px"
	 viewBox="0 0 18 18" style="enable-background:new 0 0 18 18;" xml:space="preserve">
<style type="text/css">
	.st0{fill:#030104;}
</style>
<g>
	<path class="st0" d="M7,12.3H5.4V7.1H7V12.3z M6.2,6.4c-0.6,0-0.9-0.3-0.9-0.8c0-0.2,0.1-0.4,0.3-0.6C5.8,4.9,6,4.8,6.2,4.8
		c0.6,0,0.9,0.3,0.9,0.8S6.8,6.4,6.2,6.4z M13,12.3h-1.6V9.4c0-0.8-0.3-1.1-0.8-1.1c-0.4,0-0.7,0.2-0.8,0.6c0,0.1-0.1,0.2-0.1,0.4v3
		H8V8.8C8,8,8,7.4,8,7.1h1.4l0.1,0.7C9.8,7.2,10.4,7,11.1,7c0.6,0,1,0.2,1.4,0.6C12.8,7.9,13,8.5,13,9.2L13,12.3L13,12.3z"/>
</g>
<path class="st0" d="M9,0C4,0,0,4,0,9s4,9,9,9s9-4,9-9S14,0,9,0z M9,17.4c-4.6,0-8.4-3.8-8.4-8.4S4.4,0.6,9,0.6s8.4,3.8,8.4,8.4
	S13.6,17.4,9,17.4z"/>
</svg>
