<?xml version="1.0" encoding="utf-8"?>
<!-- Generator: Adobe Illustrator 22.0.1, SVG Export Plug-In . SVG Version: 6.00 Build 0)  -->
<svg version="1.1" id="Layer_1" xmlns="http://www.w3.org/2000/svg" xmlns:xlink="http://www.w3.org/1999/xlink" x="0px" y="0px"
	 viewBox="0 0 467.8 82.9" style="enable-background:new 0 0 467.8 82.9;" xml:space="preserve">
<style type="text/css">
	.st0{fill:#4F4F4F;}
	.st1{fill:#4BBABD;}
	.st2{fill:url(#XMLID_2_);}
	.st3{fill:#FF3C38;}
</style>
<path class="st0" d="M150.4,7c5.6,4.5,8.3,10.7,8.3,18.7c0,6.9-1.6,12.8-4.8,17.9s-7.8,9-13.8,11.7s-13,4.1-21.1,4.1h-18.2
	l-4.4,22.6h-19L93.7,0.3h33C137,0.3,144.8,2.4,150.4,7z M134.5,39.8c3.4-2.9,5.1-7,5.1-12.4c0-3.9-1.3-6.8-3.9-8.8
	c-2.6-1.9-6.4-2.9-11.3-2.9h-14.8L103.9,44h16C126.2,44,131,42.5,134.5,39.8z"/>
<path class="st0" d="M217.9,27.5c3.9,3.5,5.8,8.5,5.8,14.9c0,2.3-0.3,4.7-0.8,7L216.3,82h-17.1l6.3-31.5c0.3-1.2,0.4-2.6,0.4-4
	c0-3.1-0.8-5.4-2.5-7s-4.2-2.4-7.5-2.4c-4.4,0-8,1.3-10.9,3.8s-4.8,6.3-5.8,11.3l-5.8,29.7h-17.1l16.2-81.1h17.1l-5.5,27.7
	c5-4.2,11.1-6.2,18.2-6.2C208.8,22.3,214,24,217.9,27.5z"/>
<path class="st0" d="M307,68.4l-1.7,13c-2.9,0.9-6,1.4-9.3,1.4c-4.2,0-7.7-0.8-10.4-2.5c-2.7-1.7-4.6-4-5.6-7
	c-5.2,6.3-12.1,9.5-20.8,9.5c-4.6,0-8.8-1.1-12.7-3.2c-3.9-2.1-6.9-5.2-9.2-9.1c-2.3-4-3.4-8.7-3.4-14.1c0-6.5,1.4-12.3,4.3-17.6
	c2.9-5.2,6.8-9.3,11.8-12.2c5-3,10.4-4.4,16.4-4.4c9,0,15.4,3,19.1,8.9l1.5-8h17.1l-7.7,38.2c-0.1,0.6-0.2,1.4-0.2,2.4
	c0,1.9,0.5,3.3,1.6,4.2c1.1,0.9,2.5,1.4,4.4,1.4C304,69.3,305.7,69.1,307,68.4z M273.3,66.3c2.6-1.6,4.7-3.9,6.1-6.8
	c1.5-2.9,2.2-6.3,2.2-10.1c0-4-1.2-7.2-3.6-9.5s-5.7-3.5-9.9-3.5c-3.4,0-6.3,0.8-9,2.5c-2.6,1.6-4.7,3.9-6.1,6.8
	c-1.5,2.9-2.2,6.3-2.2,10.1c0,4,1.2,7.2,3.6,9.5c2.4,2.3,5.7,3.5,9.9,3.5C267.7,68.8,270.7,67.9,273.3,66.3z"/>
<path class="st0" d="M320.6,81.2c-4.6-1.1-8.1-2.6-10.7-4.4l6.6-12.4c2.6,1.7,5.7,3,9.3,4c3.7,1,7.4,1.5,11.1,1.5
	c3.9,0,6.7-0.5,8.6-1.5s2.8-2.4,2.8-4.2c0-1.5-0.8-2.5-2.5-3.2s-4.4-1.3-8.1-2.1c-4.2-0.8-7.7-1.7-10.4-2.6
	c-2.7-0.9-5.1-2.5-7.1-4.6s-3-5.1-3-8.8c0-6.5,2.7-11.6,8.1-15.2s12.6-5.5,21.4-5.5c4.1,0,8.1,0.4,11.9,1.3c3.9,0.9,7.1,2.1,9.8,3.6
	l-6,12.6c-4.8-3-10.6-4.5-17.4-4.5c-3.7,0-6.5,0.5-8.5,1.6c-1.9,1.1-2.9,2.5-2.9,4.2c0,1.5,0.8,2.6,2.5,3.3s4.5,1.4,8.4,2.2
	c4.2,0.8,7.6,1.7,10.2,2.6c2.7,0.9,5,2.4,6.9,4.5c2,2.1,3,5,3,8.6c0,6.6-2.8,11.6-8.3,15.2s-12.6,5.4-21.4,5.4
	C330,82.8,325.2,82.3,320.6,81.2z"/>
<polygon class="st0" points="383.4,23.2 400.4,23.2 388.7,81.9 371.7,81.9 "/>
<path class="st0" d="M387.2,17.3c-1.9-1.7-2.8-3.8-2.8-6.3c0-2.9,1-5.3,3.1-7.3c2.1-1.9,4.8-2.9,8.1-2.9c3,0,5.4,0.8,7.3,2.5
	s2.8,3.7,2.8,6.1c0,3.1-1.1,5.7-3.2,7.6s-4.8,2.9-8.2,2.9C391.5,19.8,389.1,19,387.2,17.3z"/>
<path class="st0" d="M419.7,79.6c-4.5-2.2-8-5.3-10.4-9.2c-2.4-4-3.7-8.6-3.7-13.8c0-6.5,1.5-12.3,4.6-17.5s7.3-9.3,12.8-12.2
	c5.5-3,11.6-4.5,18.5-4.5c6.3,0,11.7,1.3,16.2,3.9c4.6,2.6,8,6.3,10.2,11l-14.4,7.2c-2.6-5.3-6.9-8-13.1-8c-3.4,0-6.4,0.8-9,2.5
	c-2.7,1.6-4.7,3.9-6.2,6.8c-1.5,2.9-2.2,6.2-2.2,10c0,4,1.2,7.2,3.6,9.6s5.8,3.6,10.1,3.6c6.3,0,11.1-2.6,14.4-7.9l12.6,7.9
	c-2.8,4.4-6.7,7.9-11.6,10.4S441.7,83,435.8,83C429.5,82.8,424.2,81.8,419.7,79.6z"/>
<g id="XMLID_61_">
	<path id="XMLID_63_" class="st1" d="M59.2,0.3c-23.6,0-56.3,0-56.3,0c5.2,14.2,47.5,23.2,48.9,23.4c0.5,0,0.9,0,1.4,0
		c20.7-0.4,20.4,11.5,20.4,11.5C82.5,26,82.8,0.3,59.2,0.3z"/>
	<path id="XMLID_62_" class="st1" d="M2.9,0.3"/>
</g>
<linearGradient id="XMLID_2_" gradientUnits="userSpaceOnUse" x1="2.79" y1="72.5" x2="51.9" y2="72.5" gradientTransform="matrix(1 0 0 -1 0 84.5)">
	<stop  offset="0" style="stop-color:#00A099"/>
	<stop  offset="0.3735" style="stop-color:#029D9B"/>
	<stop  offset="0.6119" style="stop-color:#0795A0"/>
	<stop  offset="0.8118" style="stop-color:#1086A9"/>
	<stop  offset="0.9905" style="stop-color:#1C71B6"/>
	<stop  offset="1" style="stop-color:#1D70B7"/>
</linearGradient>
<path id="XMLID_60_" class="st2" d="M26.4,23.5c23.7,0,1.6,0,25.5,0.2l0,0c0,0-43.6-9-48.9-23.5C2.2,11,2.5,23.5,26.4,23.5z"/>
<path id="XMLID_59_" class="st3" d="M49.6,54.3c0,2.3-1.9,4.2-4.2,4.2s-4.2-1.9-4.2-4.2c0-2.3,1.9-4.2,4.2-4.2
	C47.7,50.2,49.6,52.1,49.6,54.3z"/>
<g id="XMLID_56_">
	<path id="XMLID_58_" class="st0" d="M45.4,60.3c-1.8,0-3.3-0.8-4.4-2c-0.9,0-1.9,0-3.1,0c1.4,2.7,4.2,4.5,7.5,4.5
		c4.7,0,8.4-3.8,8.4-8.4c0-4.7-3.8-8.4-8.4-8.4c-3.2,0-6,1.8-7.4,4.5c1.1,0,2.1,0,3.1,0c1.1-1.2,2.6-1.9,4.3-1.9
		c3.3,0,5.9,2.6,5.9,5.9C51.3,57.6,48.7,60.3,45.4,60.3z"/>
	<path id="XMLID_57_" class="st0" d="M73.6,35.2L73.6,35.2c0,0,0.2-12-20.4-11.5c-0.5,0-1,0-1.4,0c4.4,0.4,6.4,8.2-2.4,8.2
		s-22.2,0-22.2,0l-4.8,18.5c0,0,7.2,0,13.7,0c1.6-3.6,5.2-6.2,9.4-6.2c5.6,0,10.2,4.6,10.2,10.2s-4.6,10.2-10.2,10.2
		c-4.2,0-7.8-2.6-9.4-6.2c-11.6,0-29.9,0-29.9,0L0,82.1h39.2C81.3,81.9,73.7,35.5,73.6,35.2z"/>
</g>
</svg>
