<?xml version="1.0" encoding="utf-8"?>
<!-- Generator: Adobe Illustrator 23.0.0, SVG Export Plug-In . SVG Version: 6.00 Build 0)  -->
<svg version="1.1" id="Layer_1" xmlns="http://www.w3.org/2000/svg" xmlns:xlink="http://www.w3.org/1999/xlink" x="0px" y="0px"
	 viewBox="0 0 175.6 174.6" style="enable-background:new 0 0 175.6 174.6;" xml:space="preserve">
<style type="text/css">
	.st0{clip-path:url(#SVGID_2_);fill:#41C0BF;}
	.st1{clip-path:url(#SVGID_2_);fill:#015F5F;}
	.st2{fill:#41C0BF;}
	.st3{fill:#015F5F;}
	.st4{clip-path:url(#SVGID_4_);fill:#015F5F;}
	.st5{clip-path:url(#SVGID_6_);fill:#015F5F;}
</style>
<g>
	<defs>
		<rect id="SVGID_1_" width="175.6" height="175"/>
	</defs>
	<clipPath id="SVGID_2_">
		<use xlink:href="#SVGID_1_"  style="overflow:visible;"/>
	</clipPath>
	<path class="st0" d="M153.9,151.7c-6.5,7.6-15.3,10.9-25.1,10.9c-6.5,0-13.1-1.1-19.7-5.5l-68.7-37.1c-5.5-3.3-8.7-5.5-12-8.7
		c-10.9-10.9-17.4-25.1-17.4-41.5c0-15.3,6.5-30.6,17.4-41.5c10.9-10.9,26.2-17.4,41.5-17.4c16.4,0,30.5,6.5,42.5,16.4
		c3.3,3.2,5.5,6.5,8.7,10.9l38.2,69.9C168.1,122.2,165.9,139.7,153.9,151.7 M169.1,103.7L131,33.8c-4.4-5.5-6.6-8.7-10.9-13.1
		C105.9,7.6,88.4,0,69.9,0c-18.5,0-36,7.6-49.1,20.7C7.6,33.8,0,51.3,0,69.9s7.6,37.1,20.7,50.2c4.4,4.4,8.7,6.5,14.2,10.9l67.7,36
		c7.6,5.5,16.4,7.7,25.1,7.7c13.1,0,24-4.4,33.8-14.2C176.8,145.2,180.1,122.2,169.1,103.7"/>
	<path class="st1" d="M70.9,87.3c-8.7,0-16.4-7.6-16.4-16.4c0-8.7,7.6-16.4,16.4-16.4c8.7,0,16.4,7.6,16.4,16.4
		C87.3,79.7,79.7,87.3,70.9,87.3 M102.6,87.3c1.1-2.2,2.1-3.2,2.1-5.4l15.3-5.4V65.5L104.7,60c-1.1-2.2-1-3.2-2.2-5.4l6.6-14.2
		l-7.6-7.7l-14.2,6.6c-2.2-1.1-3.2-1-5.4-2.1l-5.4-15.2H65.5L60,37.1c-2.2,1.1-3.2,1.1-5.4,2.2l-14.2-6.6l-7.7,7.7l6.6,14.2
		c-1.1,2.2-1.1,3.2-2.2,5.4l-15.2,5.5v10.9l15.2,5.4c1.1,2.2,1.1,3.2,2.2,5.4l-6.6,14.2l7.7,7.6l14.2-6.5c2.2,1.1,3.2,2.2,5.4,2.2
		l5.5,15.3h10.9l5.4-15.3c2.2-1.1,3.2-1.1,5.4-2.2l14.2,6.5l7.6-7.6L102.6,87.3z"/>
</g>
<rect x="123.1" y="116.4" transform="matrix(0.7071 -0.7071 0.7071 0.7071 -53.0711 128.229)" class="st2" width="10.2" height="23.5"/>
<rect x="113.9" y="114.9" transform="matrix(0.7071 -0.7071 0.7071 0.7071 -48.7797 117.8714)" class="st3" width="8" height="5.8"/>
<g>
	<defs>
		<rect id="SVGID_3_" width="175.6" height="175"/>
	</defs>
	<clipPath id="SVGID_4_">
		<use xlink:href="#SVGID_3_"  style="overflow:visible;"/>
	</clipPath>
	<path class="st4" d="M145.7,136.8c0,4.8-3.9,8.7-8.7,8.7s-8.7-3.9-8.7-8.7c0-4.8,3.9-8.7,8.7-8.7S145.7,132,145.7,136.8"/>
</g>
<polygon class="st3" points="110.2,166.8 30.7,166.8 30.7,161.8 108.2,161.8 135.1,134.9 138.6,138.4 "/>
<g>
	<defs>
		<rect id="SVGID_5_" width="175.6" height="175"/>
	</defs>
	<clipPath id="SVGID_6_">
		<use xlink:href="#SVGID_5_"  style="overflow:visible;"/>
	</clipPath>
	<path class="st5" d="M22.4,158.5c-3.2,0-5.8,2.6-5.8,5.8c0,3.2,2.6,5.8,5.8,5.8s5.8-2.6,5.8-5.8C28.2,161.1,25.6,158.5,22.4,158.5
		 M22.4,175c-5.9,0-10.8-4.8-10.8-10.8s4.8-10.8,10.8-10.8s10.8,4.8,10.8,10.8S28.4,175,22.4,175"/>
</g>
</svg>
