<?xml version="1.0" encoding="utf-8"?>
<!-- Generator: Adobe Illustrator 23.0.0, SVG Export Plug-In . SVG Version: 6.00 Build 0)  -->
<svg version="1.1" id="Layer_1" xmlns="http://www.w3.org/2000/svg" xmlns:xlink="http://www.w3.org/1999/xlink" x="0px" y="0px"
	 viewBox="0 0 175.6 174.6" style="enable-background:new 0 0 175.6 174.6;" xml:space="preserve">
<style type="text/css">
	.st0{clip-path:url(#SVGID_2_);fill:#015F5F;}
	.st1{clip-path:url(#SVGID_2_);fill:#41C0BF;}
</style>
<g>
	<defs>
		<rect id="SVGID_1_" width="175.6" height="171.7"/>
	</defs>
	<clipPath id="SVGID_2_">
		<use xlink:href="#SVGID_1_"  style="overflow:visible;"/>
	</clipPath>
	<path class="st0" d="M72.3,34.3h-2.4c-2.8,0-5,2.1-5,4.6v19.6h12.5V38.9C77.3,36.3,75.1,34.3,72.3,34.3"/>
	<path class="st0" d="M105.7,34.3h-2.4c-2.8,0-5,2.1-5,4.6v19.6h12.5V38.9C110.7,36.3,108.5,34.3,105.7,34.3"/>
	<path class="st1" d="M90.2,70.7h7.3v17.7h-7.3V70.7z M85.4,88.4h-7.3V70.7h7.3V88.4z M73.4,88.4h-7.3V70.7h7.3V88.4z M102.2,70.7
		h7.3v17.7h-7.3V70.7z M87.8,0C39.4,0,0,39.4,0,87.8c0,23.4,9.1,45.4,25.6,61.9c9.7,9.8,21.8,17.3,34.9,21.5
		c0.9,0.3,1.8,0.4,2.6,0.4c3.6,0,6.9-2.3,8-5.9c1.5-4.4-1-9.2-5.4-10.6c-10.5-3.4-20.3-9.5-28.2-17.4c-13.3-13.4-20.6-31.1-20.6-50
		c0-39.1,31.8-70.9,70.9-70.9c39.1,0,70.9,31.8,70.9,70.9c0,18.9-7.4,36.7-20.8,50.1c-5.1,4.6-17.9,13.9-25.5,13.9
		c-3.9,0-6.9-1.3-9.3-3.9c-6-6.7-7.4-20.4-7.3-29.9c14.7-0.7,26.4-12.9,26.4-27.7V64H53.4v26.3c0,14.6,11.2,26.5,25.5,27.6
		c-0.1,11.3,1.5,29.9,11.6,41.2c5.6,6.3,13.2,9.5,21.9,9.5c16.4,0,35-16.5,37-18.4l0.3-0.3c16.7-16.6,25.9-38.7,25.9-62.2
		C175.6,39.4,136.2,0,87.8,0"/>
</g>
</svg>
