<?xml version="1.0" encoding="utf-8"?>
<!-- Generator: Adobe Illustrator 23.0.0, SVG Export Plug-In . SVG Version: 6.00 Build 0)  -->
<svg version="1.1" id="Layer_1" xmlns="http://www.w3.org/2000/svg" xmlns:xlink="http://www.w3.org/1999/xlink" x="0px" y="0px"
	 viewBox="0 0 173.7 174.6" style="enable-background:new 0 0 173.7 174.6;" xml:space="preserve">
<style type="text/css">
	.st0{clip-path:url(#SVGID_2_);fill:#3D7370;}
	.st1{clip-path:url(#SVGID_4_);fill:#41C0BF;}
	.st2{clip-path:url(#SVGID_6_);fill:#41C0BF;}
</style>
<g>
	<g>
		<defs>
			<rect id="SVGID_1_" width="173.7" height="174.6"/>
		</defs>
		<clipPath id="SVGID_2_">
			<use xlink:href="#SVGID_1_"  style="overflow:visible;"/>
		</clipPath>
		<path class="st0" d="M122.3,86.1c-0.4-1.7-1.7-3.1-3.3-3.7L94,74l17.7-35.7c1.1-2.2,0.4-5-1.6-6.4c-2-1.5-4.8-1.2-6.6,0.5
			L52.7,83.7c-1.2,1.3-1.8,3.1-1.4,4.8c0.4,1.7,1.7,3.1,3.3,3.7l25,8.4l-17.7,35.7c-1.1,2.2-0.4,5,1.6,6.4c2,1.5,4.8,1.2,6.6-0.5
			L121,90.9C122.2,89.7,122.7,87.9,122.3,86.1"/>
	</g>
	<g>
		<defs>
			<rect id="SVGID_3_" width="173.7" height="174.6"/>
		</defs>
		<clipPath id="SVGID_4_">
			<use xlink:href="#SVGID_3_"  style="overflow:visible;"/>
		</clipPath>
		<path class="st1" d="M86.8,0C61,0,36.6,12.1,20.4,31.6V26c0-2.8-2.3-5.1-5.1-5.1s-5.1,2.3-5.1,5.1v21.7c0,4.9,6.3,5.6,5.1,5.1
			c0.1,0,0.2,0,0.3,0L36,51.5c2.8-0.2,4.9-2.6,4.8-5.4c-0.2-2.8-2.6-4.9-5.4-4.8L25,41.9c14.3-19.5,37.4-31.7,61.8-31.7
			c42.1,0,76.7,34.8,76.7,77.1c0,2.8,2.3,5.1,5.1,5.1s5.1-2.3,5.1-5.1C173.7,39.4,134.5,0,86.8,0"/>
	</g>
	<g>
		<defs>
			<rect id="SVGID_5_" width="173.7" height="174.6"/>
		</defs>
		<clipPath id="SVGID_6_">
			<use xlink:href="#SVGID_5_"  style="overflow:visible;"/>
		</clipPath>
		<path class="st2" d="M158.1,121.9l-20.4,1.3c-2.8,0.2-4.9,2.6-4.8,5.4c0.2,2.8,2.7,5,5.4,4.8l10.3-0.6
			c-14.3,19.5-37.4,31.7-61.8,31.7c-42.1,0-76.7-34.8-76.7-77.1c0-2.8-2.3-5.1-5.1-5.1s-5.1,2.3-5.1,5.1c0,48,39.1,87.3,86.8,87.3
			c25.8,0,50.2-12.1,66.5-31.6v5.6c0,2.8,2.3,5.1,5.1,5.1s5.1-2.3,5.1-5.1V127C163.5,124.2,160.8,121.7,158.1,121.9"/>
	</g>
</g>
</svg>
