<?xml version="1.0" encoding="utf-8"?>
<!-- Generator: Adobe Illustrator 23.0.0, SVG Export Plug-In . SVG Version: 6.00 Build 0)  -->
<svg version="1.1" id="Layer_1" xmlns="http://www.w3.org/2000/svg" xmlns:xlink="http://www.w3.org/1999/xlink" x="0px" y="0px"
	 viewBox="0 0 133.9 174.6" style="enable-background:new 0 0 133.9 174.6;" xml:space="preserve">
<style type="text/css">
	.st0{clip-path:url(#SVGID_2_);fill:#41C0BF;}
	.st1{clip-path:url(#SVGID_4_);fill:#41C0BF;}
	.st2{clip-path:url(#SVGID_6_);fill:#3D7370;}
	.st3{clip-path:url(#SVGID_8_);fill:#3D7370;}
</style>
<g>
	<g>
		<defs>
			<rect id="SVGID_1_" width="133.9" height="174.6"/>
		</defs>
		<clipPath id="SVGID_2_">
			<use xlink:href="#SVGID_1_"  style="overflow:visible;"/>
		</clipPath>
		<path class="st0" d="M28.2,92C16.9,91.3,7.5,80.6,7.5,68.5c0-7.8,4.2-15.1,10.9-19c1.6-0.9,2.3-2.8,1.6-4.5
			c-0.6-1.5-0.8-3.1-0.8-4.7c0-7.6,6.2-13.8,13.8-13.8c1.6,0,3.2,0.3,4.7,0.8c1.8,0.7,3.8-0.1,4.7-1.9c5.1-10.9,16.3-18,28.4-18
			c16.2,0,29.7,12.2,31.2,28.3c0.2,1.7,1.4,3.1,3.1,3.3c12.2,2.1,21.5,13.4,21.5,26.3c0,13.7-10.8,25.6-24,26.6H28.2V92z
			 M102.8,99.4c17.4-1.2,31.1-16.2,31.1-34c0-15.5-10.5-29.3-25-33.1C105.8,13.7,89.9,0,70.7,0C56.8,0,43.9,7.5,37,19.4
			c-1.3-0.3-2.7-0.4-4.1-0.4c-11.7,0-21.2,9.5-21.2,21.2c0,1.5,0.2,3,0.5,4.4C4.6,50.2,0,59.1,0,68.5c0,15.9,12.8,30.1,27.9,30.9
			h74.7C102.6,99.4,102.7,99.4,102.8,99.4"/>
	</g>
	<g>
		<defs>
			<rect id="SVGID_3_" width="133.9" height="174.6"/>
		</defs>
		<clipPath id="SVGID_4_">
			<use xlink:href="#SVGID_3_"  style="overflow:visible;"/>
		</clipPath>
		<path class="st1" d="M70.9,158c1,1.1,1.5,2.4,1.5,3.8c-0.1,2.9-2.5,5.3-5.4,5.3h-0.2c-1.4,0-2.8-0.6-3.8-1.7
			c-1-1.1-1.5-2.4-1.5-3.8c0.1-2.9,2.5-5.3,5.4-5.3h0.2C68.5,156.4,69.8,157,70.9,158 M66.9,102c-2.1,0-3.7,1.7-3.7,3.7v43.7
			c-5.2,1.6-9,6.4-9.1,12c-0.1,3.4,1.2,6.7,3.5,9.2c2.4,2.5,5.6,3.9,9,4h0.3c6.9,0,12.7-5.7,12.8-12.5c0.1-3.4-1.2-6.7-3.5-9.2
			c-1.5-1.6-3.5-2.8-5.6-3.4v-43.7C70.7,103.7,69,102,66.9,102"/>
	</g>
	<g>
		<defs>
			<rect id="SVGID_5_" width="133.9" height="174.6"/>
		</defs>
		<clipPath id="SVGID_6_">
			<use xlink:href="#SVGID_5_"  style="overflow:visible;"/>
		</clipPath>
		<path class="st2" d="M13.2,143.3c-3,0-5.4-2.4-5.4-5.4s2.4-5.4,5.4-5.4s5.4,2.4,5.4,5.4C18.6,140.9,16.2,143.3,13.2,143.3
			 M43,106.8v20.9c0,3.6-2.9,6.5-6.5,6.5h-11c-1.6-5.3-6.5-9.2-12.3-9.2c-7.1,0-12.9,5.8-12.9,12.9c0,7.1,5.8,12.9,12.9,12.9
			c5.8,0,10.7-3.8,12.3-9.2h11c7.7,0,14-6.3,14-14v-20.9c0-2.1-1.7-3.7-3.7-3.7C44.7,103,43,104.7,43,106.8"/>
	</g>
	<g>
		<defs>
			<rect id="SVGID_7_" width="133.9" height="174.6"/>
		</defs>
		<clipPath id="SVGID_8_">
			<use xlink:href="#SVGID_7_"  style="overflow:visible;"/>
		</clipPath>
		<path class="st3" d="M120.7,131.5c3,0,5.4,2.4,5.4,5.4s-2.4,5.4-5.4,5.4s-5.4-2.4-5.4-5.4C115.3,133.9,117.7,131.5,120.7,131.5
			 M97.4,140.7h11c1.6,5.3,6.5,9.2,12.3,9.2c7.1,0,12.9-5.8,12.9-12.9s-5.8-12.9-12.9-12.9c-5.8,0-10.7,3.8-12.3,9.2h-11
			c-3.6,0-6.5-2.9-6.5-6.5v-20.9c0-2.1-1.7-3.7-3.7-3.7s-3.7,1.7-3.7,3.7v20.9C83.4,134.4,89.7,140.7,97.4,140.7"/>
	</g>
</g>
</svg>
